<?xml version="1.0" encoding="UTF-8"?>
<svg width="1036px" height="181px" viewBox="0 0 1036 181" version="1.1" xmlns="http://www.w3.org/2000/svg" xmlns:xlink="http://www.w3.org/1999/xlink">
    <!-- Generator: Sketch 47.1 (45422) - http://www.bohemiancoding.com/sketch -->
    <title>logo-text</title>
    <desc>Created with Sketch.</desc>
    <defs></defs>
    <g id="Page-1" stroke="none" stroke-width="1" fill="none" fill-rule="evenodd">
        <g id="logo-text" fill="#000000">
            <path d="M0.9140625,146 L17.90625,146 L17.90625,87.6015625 C17.90625,70.0234375 28.3554688,58.5 45.25,58.5 C61.1679688,58.5 69.2734375,68.1679688 69.2734375,84.28125 L69.2734375,146 L86.265625,146 L86.265625,81.15625 C86.265625,58.5 72.7890625,43.4609375 50.5234375,43.4609375 C34.9960938,43.4609375 24.546875,49.4179688 18.296875,61.0390625 L17.90625,61.0390625 L17.90625,5.08203125 L0.9140625,5.08203125 L0.9140625,146 Z M141.34375,132.914063 C157.652344,132.914063 169.664062,121.878906 169.664062,107.425781 L169.664062,99.3203125 L143.394531,100.980469 C128.355469,101.859375 120.542969,107.425781 120.542969,117.09375 C120.542969,126.371094 128.648438,132.914063 141.34375,132.914063 Z M137.535156,147.464844 C116.929688,147.464844 103.257812,135.0625 103.257812,117.09375 C103.257812,99.6132812 116.636719,89.2617188 141.441406,87.796875 L169.664062,86.1367188 L169.664062,77.7382812 C169.664062,65.2382812 161.460938,58.4023438 146.714844,58.4023438 C135.09375,58.4023438 126.402344,64.359375 124.449219,73.8320312 L108.238281,73.8320312 C108.726562,56.546875 125.425781,43.4609375 147.007812,43.4609375 C171.128906,43.4609375 186.65625,56.2539062 186.65625,76.2734375 L186.65625,146 L170.542969,146 L170.542969,128.519531 L170.152344,128.519531 C164.390625,139.75 151.695312,147.464844 137.535156,147.464844 Z M292.613281,77.7382812 C290.5625,59.671875 275.132812,43.4609375 249.839844,43.4609375 C221.910156,43.4609375 203.257812,63.96875 203.257812,95.21875 C203.257812,127.152344 222.007812,146.976562 250.035156,146.976562 C273.375,146.976562 290.074219,133.207031 292.808594,113.285156 L276.109375,113.285156 C273.375,125.394531 264.097656,132.035156 250.132812,132.035156 C232.652344,132.035156 220.542969,118.070312 220.542969,95.21875 C220.542969,72.953125 232.457031,58.4023438 249.9375,58.4023438 C264.976562,58.4023438 273.960938,66.8984375 276.011719,77.7382812 L292.613281,77.7382812 Z M326.304688,89.5546875 L326.304688,5.08203125 L309.3125,5.08203125 L309.3125,146 L326.304688,146 L326.304688,107.71875 L335.777344,98.734375 L373.472656,146 L393.199219,146 L347.789062,88.2851562 L391.832031,44.4375 L371.226562,44.4375 L326.304688,89.5546875 Z M442.613281,147.269531 C416.636719,147.269531 399.9375,126.566406 399.9375,93.4609375 C399.9375,60.6484375 416.734375,40.0429688 442.808594,40.0429688 C457.945312,40.0429688 469.566406,47.6601562 474.742188,59.28125 L475.328125,59.28125 L475.328125,5.08203125 L503.84375,5.08203125 L503.84375,146 L475.71875,146 L475.71875,128.03125 L475.230469,128.03125 C470.152344,139.554688 458.042969,147.269531 442.613281,147.269531 Z M452.28125,62.9921875 C438.121094,62.9921875 429.136719,74.90625 429.136719,93.65625 C429.136719,112.503906 438.121094,124.320313 452.28125,124.320313 C466.441406,124.320313 475.523438,112.40625 475.523438,93.65625 C475.523438,75.0039063 466.441406,62.9921875 452.28125,62.9921875 Z M523.375,146 L551.890625,146 L551.890625,41.3125 L523.375,41.3125 L523.375,146 Z M537.632812,29.7890625 C546.03125,29.7890625 552.867188,23.34375 552.867188,15.0429688 C552.867188,6.546875 546.03125,0.296875 537.632812,0.296875 C529.234375,0.296875 522.398438,6.546875 522.398438,15.0429688 C522.398438,23.34375 529.234375,29.7890625 537.632812,29.7890625 Z M569.078125,72.2695312 C569.078125,87.6015625 579.234375,97.8554688 599.058594,102.347656 L618.394531,106.644531 C627.769531,108.890625 631.285156,111.722656 631.285156,116.898438 C631.285156,123.636719 624.644531,127.835938 613.902344,127.835938 C602.574219,127.835938 595.542969,122.855469 594.273438,114.164062 L566.441406,114.164062 C567.90625,134.476562 585.191406,147.855469 613.121094,147.855469 C640.757812,147.855469 659.703125,134.378906 659.703125,113.871094 C659.703125,98.34375 651.207031,90.140625 630.210938,85.453125 L610.191406,81.15625 C601.011719,79.0078125 596.519531,75.5898438 596.519531,70.5117188 C596.519531,63.8710938 603.0625,59.4765625 612.828125,59.4765625 C623.375,59.4765625 630.210938,64.6523438 630.699219,72.8554688 L656.96875,72.8554688 C656.675781,52.640625 639.390625,39.4570312 613.21875,39.4570312 C586.363281,39.4570312 569.078125,52.4453125 569.078125,72.2695312 Z M673.863281,146 L702.378906,146 L702.378906,87.8945312 C702.378906,73.1484375 710.582031,64.5546875 724.644531,64.5546875 C728.746094,64.5546875 732.652344,65.2382812 734.996094,66.2148438 L734.996094,41.1171875 C732.945312,40.4335937 730.210938,40.0429687 726.890625,40.0429687 C714.585938,40.0429687 705.601562,47.171875 701.988281,60.1601562 L701.402344,60.1601562 L701.402344,41.3125 L673.863281,41.3125 L673.863281,146 Z M843.296875,41.3125 L814.78125,41.3125 L814.78125,100.882813 C814.78125,114.75 806.871094,123.832031 794.175781,123.832031 C781.578125,123.832031 774.644531,116.410156 774.644531,102.445312 L774.644531,41.3125 L746.128906,41.3125 L746.128906,108.402344 C746.128906,132.816406 761.167969,147.5625 783.824219,147.5625 C799.644531,147.5625 809.898438,140.140625 815.171875,126.957031 L815.757812,126.957031 L815.757812,146 L843.296875,146 L843.296875,41.3125 Z M922.984375,40.0429688 C949.546875,40.0429688 965.855469,60.2578125 965.855469,93.65625 C965.855469,126.957031 949.644531,147.269531 923.472656,147.269531 C908.238281,147.269531 896.617188,140.238281 890.953125,128.421875 L890.367188,128.421875 L890.367188,180.179688 L861.851562,180.179688 L861.851562,41.3125 L889.976562,41.3125 L889.976562,59.28125 L890.5625,59.28125 C896.128906,47.3671875 908.238281,40.0429688 922.984375,40.0429688 Z M913.414062,124.320313 C927.476562,124.320313 936.65625,112.308594 936.65625,93.65625 C936.65625,75.1015625 927.476562,62.9921875 913.414062,62.9921875 C899.546875,62.9921875 890.269531,75.296875 890.269531,93.65625 C890.269531,112.210938 899.449219,124.320313 913.414062,124.320313 Z M988.121094,17.1914062 L988.121094,41.3125 L973.375,41.3125 L973.375,62.796875 L988.121094,62.796875 L988.121094,117.679688 C988.121094,138.089844 997.691406,146.390625 1022.30078,146.390625 C1028.0625,146.390625 1032.94531,145.804688 1035.875,145.21875 L1035.875,124.222656 C1034.11719,124.515625 1031.48047,124.710938 1028.94141,124.710938 C1020.54297,124.710938 1016.63672,120.804688 1016.63672,112.796875 L1016.63672,62.796875 L1035.97266,62.796875 L1035.97266,41.3125 L1016.63672,41.3125 L1016.63672,17.1914062 L988.121094,17.1914062 Z" id="hackdisrupt"></path>
        </g>
    </g>
</svg>