<?xml version="1.0" encoding="UTF-8"?>
<svg width="1037px" height="663px" viewBox="0 0 1037 663" version="1.1" xmlns="http://www.w3.org/2000/svg" xmlns:xlink="http://www.w3.org/1999/xlink">
    <!-- Generator: Sketch 47.1 (45422) - http://www.bohemiancoding.com/sketch -->
    <title>logo</title>
    <desc>Created with Sketch.</desc>
    <defs></defs>
    <g id="Page-1" stroke="none" stroke-width="1" fill="none" fill-rule="evenodd">
        <g id="logo">
            <g id="Group-2" transform="translate(-11.000000, 0.000000)">
                <path d="M12.7539062,628 L29.7460938,628 L29.7460938,569.601562 C29.7460938,552.023438 40.1953125,540.5 57.0898438,540.5 C73.0078125,540.5 81.1132812,550.167969 81.1132812,566.28125 L81.1132812,628 L98.1054688,628 L98.1054688,563.15625 C98.1054688,540.5 84.6289062,525.460938 62.3632812,525.460938 C46.8359375,525.460938 36.3867188,531.417969 30.1367188,543.039062 L29.7460938,543.039062 L29.7460938,487.082031 L12.7539062,487.082031 L12.7539062,628 Z M153.183594,614.914062 C169.492188,614.914062 181.503906,603.878906 181.503906,589.425781 L181.503906,581.320312 L155.234375,582.980469 C140.195312,583.859375 132.382812,589.425781 132.382812,599.09375 C132.382812,608.371094 140.488281,614.914062 153.183594,614.914062 Z M149.375,629.464844 C128.769531,629.464844 115.097656,617.0625 115.097656,599.09375 C115.097656,581.613281 128.476562,571.261719 153.28125,569.796875 L181.503906,568.136719 L181.503906,559.738281 C181.503906,547.238281 173.300781,540.402344 158.554688,540.402344 C146.933594,540.402344 138.242188,546.359375 136.289062,555.832031 L120.078125,555.832031 C120.566406,538.546875 137.265625,525.460938 158.847656,525.460938 C182.96875,525.460938 198.496094,538.253906 198.496094,558.273438 L198.496094,628 L182.382812,628 L182.382812,610.519531 L181.992188,610.519531 C176.230469,621.75 163.535156,629.464844 149.375,629.464844 Z M304.453125,559.738281 C302.402344,541.671875 286.972656,525.460938 261.679688,525.460938 C233.75,525.460938 215.097656,545.96875 215.097656,577.21875 C215.097656,609.152344 233.847656,628.976562 261.875,628.976562 C285.214844,628.976562 301.914062,615.207031 304.648438,595.285156 L287.949219,595.285156 C285.214844,607.394531 275.9375,614.035156 261.972656,614.035156 C244.492188,614.035156 232.382812,600.070312 232.382812,577.21875 C232.382812,554.953125 244.296875,540.402344 261.777344,540.402344 C276.816406,540.402344 285.800781,548.898438 287.851562,559.738281 L304.453125,559.738281 Z M338.144531,571.554688 L338.144531,487.082031 L321.152344,487.082031 L321.152344,628 L338.144531,628 L338.144531,589.71875 L347.617188,580.734375 L385.3125,628 L405.039062,628 L359.628906,570.285156 L403.671875,526.4375 L383.066406,526.4375 L338.144531,571.554688 Z M454.453125,629.269531 C428.476562,629.269531 411.777344,608.566406 411.777344,575.460938 C411.777344,542.648438 428.574219,522.042969 454.648438,522.042969 C469.785156,522.042969 481.40625,529.660156 486.582031,541.28125 L487.167969,541.28125 L487.167969,487.082031 L515.683594,487.082031 L515.683594,628 L487.558594,628 L487.558594,610.03125 L487.070312,610.03125 C481.992188,621.554688 469.882812,629.269531 454.453125,629.269531 Z M464.121094,544.992188 C449.960938,544.992188 440.976562,556.90625 440.976562,575.65625 C440.976562,594.503906 449.960938,606.320312 464.121094,606.320312 C478.28125,606.320312 487.363281,594.40625 487.363281,575.65625 C487.363281,557.003906 478.28125,544.992188 464.121094,544.992188 Z M535.214844,628 L563.730469,628 L563.730469,523.3125 L535.214844,523.3125 L535.214844,628 Z M549.472656,511.789062 C557.871094,511.789062 564.707031,505.34375 564.707031,497.042969 C564.707031,488.546875 557.871094,482.296875 549.472656,482.296875 C541.074219,482.296875 534.238281,488.546875 534.238281,497.042969 C534.238281,505.34375 541.074219,511.789062 549.472656,511.789062 Z M580.917969,554.269531 C580.917969,569.601562 591.074219,579.855469 610.898438,584.347656 L630.234375,588.644531 C639.609375,590.890625 643.125,593.722656 643.125,598.898438 C643.125,605.636719 636.484375,609.835938 625.742188,609.835938 C614.414062,609.835938 607.382812,604.855469 606.113281,596.164062 L578.28125,596.164062 C579.746094,616.476562 597.03125,629.855469 624.960938,629.855469 C652.597656,629.855469 671.542969,616.378906 671.542969,595.871094 C671.542969,580.34375 663.046875,572.140625 642.050781,567.453125 L622.03125,563.15625 C612.851562,561.007812 608.359375,557.589844 608.359375,552.511719 C608.359375,545.871094 614.902344,541.476562 624.667969,541.476562 C635.214844,541.476562 642.050781,546.652344 642.539062,554.855469 L668.808594,554.855469 C668.515625,534.640625 651.230469,521.457031 625.058594,521.457031 C598.203125,521.457031 580.917969,534.445312 580.917969,554.269531 Z M685.703125,628 L714.21875,628 L714.21875,569.894531 C714.21875,555.148438 722.421875,546.554688 736.484375,546.554688 C740.585938,546.554688 744.492188,547.238281 746.835938,548.214844 L746.835938,523.117188 C744.785156,522.433594 742.050781,522.042969 738.730469,522.042969 C726.425781,522.042969 717.441406,529.171875 713.828125,542.160156 L713.242188,542.160156 L713.242188,523.3125 L685.703125,523.3125 L685.703125,628 Z M855.136719,523.3125 L826.621094,523.3125 L826.621094,582.882812 C826.621094,596.75 818.710938,605.832031 806.015625,605.832031 C793.417969,605.832031 786.484375,598.410156 786.484375,584.445312 L786.484375,523.3125 L757.96875,523.3125 L757.96875,590.402344 C757.96875,614.816406 773.007812,629.5625 795.664062,629.5625 C811.484375,629.5625 821.738281,622.140625 827.011719,608.957031 L827.597656,608.957031 L827.597656,628 L855.136719,628 L855.136719,523.3125 Z M934.824219,522.042969 C961.386719,522.042969 977.695312,542.257812 977.695312,575.65625 C977.695312,608.957031 961.484375,629.269531 935.3125,629.269531 C920.078125,629.269531 908.457031,622.238281 902.792969,610.421875 L902.207031,610.421875 L902.207031,662.179688 L873.691406,662.179688 L873.691406,523.3125 L901.816406,523.3125 L901.816406,541.28125 L902.402344,541.28125 C907.96875,529.367188 920.078125,522.042969 934.824219,522.042969 Z M925.253906,606.320312 C939.316406,606.320312 948.496094,594.308594 948.496094,575.65625 C948.496094,557.101562 939.316406,544.992188 925.253906,544.992188 C911.386719,544.992188 902.109375,557.296875 902.109375,575.65625 C902.109375,594.210938 911.289062,606.320312 925.253906,606.320312 Z M999.960938,499.191406 L999.960938,523.3125 L985.214844,523.3125 L985.214844,544.796875 L999.960938,544.796875 L999.960938,599.679688 C999.960938,620.089844 1009.53125,628.390625 1034.14062,628.390625 C1039.90234,628.390625 1044.78516,627.804688 1047.71484,627.21875 L1047.71484,606.222656 C1045.95703,606.515625 1043.32031,606.710938 1040.78125,606.710938 C1032.38281,606.710938 1028.47656,602.804688 1028.47656,594.796875 L1028.47656,544.796875 L1047.8125,544.796875 L1047.8125,523.3125 L1028.47656,523.3125 L1028.47656,499.191406 L999.960938,499.191406 Z" id="hackdisrupt" fill="#000000"></path>
                <g id="logo-symbol" transform="translate(368.000000, 0.000000)">
                    <path d="M137.925,5.43037552 C151.218,-1.80562448 172.755,-1.81462448 186.075,5.43037552 L299.925,67.3503755 C313.218,74.5863755 324,92.7033755 324,107.796376 L324,229.350376 C324,244.452376 313.245,262.542376 299.925,269.787376 L186.075,331.707376 C172.782,338.943376 151.245,338.961376 137.925,331.707376 L24.075,269.787376 C10.782,262.551376 0,244.434376 0,229.350376 L0,107.796376 C0,92.6943755 10.755,74.6043755 24.075,67.3503755 L137.925,5.43037552 Z" id="Shape" fill="#000000" fill-rule="nonzero"></path>
                    <path d="M80.15625,218 L105.117188,218 L105.117188,174.898438 C105.117188,166.390625 109.828125,160.414062 118.195312,160.414062 C126.421875,160.414062 130.710938,165.6875 130.710938,174.40625 L130.710938,218 L155.601562,218 L155.601562,168.992188 C155.601562,150.921875 146.109375,140.09375 129.023438,140.09375 C117.351562,140.09375 109.054688,145.648438 105.046875,155.914062 L104.554688,155.914062 L104.554688,116.539062 L80.15625,116.539062 L80.15625,218 Z M195.46875,219.054688 C176.484375,219.054688 164.953125,204.148438 164.953125,179.539062 C164.953125,155.210938 176.695312,140.445312 195.75,140.445312 C206.859375,140.445312 215.296875,146.351562 218.671875,154.929688 L219.164062,154.929688 L219.164062,116.539062 L244.054688,116.539062 L244.054688,218 L219.304688,218 L219.304688,204.851562 L218.8125,204.851562 C215.71875,213.007812 206.859375,219.054688 195.46875,219.054688 Z M204.820312,159.921875 C195.960938,159.921875 190.476562,167.585938 190.476562,179.75 C190.476562,191.984375 195.890625,199.507812 204.820312,199.507812 C213.820312,199.507812 219.234375,192.054688 219.234375,179.75 C219.234375,167.585938 213.75,159.921875 204.820312,159.921875 Z" id="hd" fill="#FFFFFF"></path>
                </g>
            </g>
        </g>
    </g>
</svg>