<?xml version="1.0" encoding="UTF-8"?>
<svg width="1476px" height="338px" viewBox="0 0 1476 338" version="1.1" xmlns="http://www.w3.org/2000/svg" xmlns:xlink="http://www.w3.org/1999/xlink">
    <!-- Generator: Sketch 47.1 (45422) - http://www.bohemiancoding.com/sketch -->
    <title>logo-vertical</title>
    <desc>Created with Sketch.</desc>
    <defs></defs>
    <g id="Page-1" stroke="none" stroke-width="1" fill="none" fill-rule="evenodd">
        <g id="logo-vertical">
            <g id="Group-2">
                <path d="M440.914062,240 L457.90625,240 L457.90625,181.601562 C457.90625,164.023438 468.355469,152.5 485.25,152.5 C501.167969,152.5 509.273438,162.167969 509.273438,178.28125 L509.273438,240 L526.265625,240 L526.265625,175.15625 C526.265625,152.5 512.789062,137.460938 490.523438,137.460938 C474.996094,137.460938 464.546875,143.417969 458.296875,155.039062 L457.90625,155.039062 L457.90625,99.0820312 L440.914062,99.0820312 L440.914062,240 Z M581.34375,226.914063 C597.652344,226.914063 609.664062,215.878906 609.664062,201.425781 L609.664062,193.320312 L583.394531,194.980469 C568.355469,195.859375 560.542969,201.425781 560.542969,211.09375 C560.542969,220.371094 568.648438,226.914063 581.34375,226.914063 Z M577.535156,241.464844 C556.929688,241.464844 543.257812,229.0625 543.257812,211.09375 C543.257812,193.613281 556.636719,183.261719 581.441406,181.796875 L609.664062,180.136719 L609.664062,171.738281 C609.664062,159.238281 601.460938,152.402344 586.714844,152.402344 C575.09375,152.402344 566.402344,158.359375 564.449219,167.832031 L548.238281,167.832031 C548.726562,150.546875 565.425781,137.460938 587.007812,137.460938 C611.128906,137.460938 626.65625,150.253906 626.65625,170.273438 L626.65625,240 L610.542969,240 L610.542969,222.519531 L610.152344,222.519531 C604.390625,233.75 591.695312,241.464844 577.535156,241.464844 Z M732.613281,171.738281 C730.5625,153.671875 715.132812,137.460938 689.839844,137.460938 C661.910156,137.460938 643.257812,157.96875 643.257812,189.21875 C643.257812,221.152344 662.007812,240.976562 690.035156,240.976562 C713.375,240.976562 730.074219,227.207031 732.808594,207.285156 L716.109375,207.285156 C713.375,219.394531 704.097656,226.035156 690.132812,226.035156 C672.652344,226.035156 660.542969,212.070312 660.542969,189.21875 C660.542969,166.953125 672.457031,152.402344 689.9375,152.402344 C704.976562,152.402344 713.960938,160.898438 716.011719,171.738281 L732.613281,171.738281 Z M766.304688,183.554688 L766.304688,99.0820312 L749.3125,99.0820312 L749.3125,240 L766.304688,240 L766.304688,201.71875 L775.777344,192.734375 L813.472656,240 L833.199219,240 L787.789062,182.285156 L831.832031,138.4375 L811.226562,138.4375 L766.304688,183.554688 Z M882.613281,241.269531 C856.636719,241.269531 839.9375,220.566406 839.9375,187.460938 C839.9375,154.648438 856.734375,134.042969 882.808594,134.042969 C897.945312,134.042969 909.566406,141.660156 914.742188,153.28125 L915.328125,153.28125 L915.328125,99.0820312 L943.84375,99.0820312 L943.84375,240 L915.71875,240 L915.71875,222.03125 L915.230469,222.03125 C910.152344,233.554688 898.042969,241.269531 882.613281,241.269531 Z M892.28125,156.992188 C878.121094,156.992188 869.136719,168.90625 869.136719,187.65625 C869.136719,206.503906 878.121094,218.320313 892.28125,218.320313 C906.441406,218.320313 915.523438,206.40625 915.523438,187.65625 C915.523438,169.003906 906.441406,156.992188 892.28125,156.992188 Z M963.375,240 L991.890625,240 L991.890625,135.3125 L963.375,135.3125 L963.375,240 Z M977.632812,123.789062 C986.03125,123.789062 992.867188,117.34375 992.867188,109.042969 C992.867188,100.546875 986.03125,94.296875 977.632812,94.296875 C969.234375,94.296875 962.398438,100.546875 962.398438,109.042969 C962.398438,117.34375 969.234375,123.789062 977.632812,123.789062 Z M1009.07812,166.269531 C1009.07812,181.601562 1019.23438,191.855469 1039.05859,196.347656 L1058.39453,200.644531 C1067.76953,202.890625 1071.28516,205.722656 1071.28516,210.898438 C1071.28516,217.636719 1064.64453,221.835938 1053.90234,221.835938 C1042.57422,221.835938 1035.54297,216.855469 1034.27344,208.164062 L1006.44141,208.164062 C1007.90625,228.476562 1025.19141,241.855469 1053.12109,241.855469 C1080.75781,241.855469 1099.70312,228.378906 1099.70312,207.871094 C1099.70312,192.34375 1091.20703,184.140625 1070.21094,179.453125 L1050.19141,175.15625 C1041.01172,173.007812 1036.51953,169.589844 1036.51953,164.511719 C1036.51953,157.871094 1043.0625,153.476562 1052.82812,153.476562 C1063.375,153.476562 1070.21094,158.652344 1070.69922,166.855469 L1096.96875,166.855469 C1096.67578,146.640625 1079.39062,133.457031 1053.21875,133.457031 C1026.36328,133.457031 1009.07812,146.445312 1009.07812,166.269531 Z M1113.86328,240 L1142.37891,240 L1142.37891,181.894531 C1142.37891,167.148438 1150.58203,158.554688 1164.64453,158.554688 C1168.74609,158.554688 1172.65234,159.238281 1174.99609,160.214844 L1174.99609,135.117188 C1172.94531,134.433594 1170.21094,134.042969 1166.89062,134.042969 C1154.58594,134.042969 1145.60156,141.171875 1141.98828,154.160156 L1141.40234,154.160156 L1141.40234,135.3125 L1113.86328,135.3125 L1113.86328,240 Z M1283.29688,135.3125 L1254.78125,135.3125 L1254.78125,194.882812 C1254.78125,208.75 1246.87109,217.832031 1234.17578,217.832031 C1221.57812,217.832031 1214.64453,210.410156 1214.64453,196.445312 L1214.64453,135.3125 L1186.12891,135.3125 L1186.12891,202.402344 C1186.12891,226.816406 1201.16797,241.5625 1223.82422,241.5625 C1239.64453,241.5625 1249.89844,234.140625 1255.17188,220.957031 L1255.75781,220.957031 L1255.75781,240 L1283.29688,240 L1283.29688,135.3125 Z M1362.98438,134.042969 C1389.54688,134.042969 1405.85547,154.257812 1405.85547,187.65625 C1405.85547,220.957031 1389.64453,241.269531 1363.47266,241.269531 C1348.23828,241.269531 1336.61719,234.238281 1330.95312,222.421875 L1330.36719,222.421875 L1330.36719,274.179688 L1301.85156,274.179688 L1301.85156,135.3125 L1329.97656,135.3125 L1329.97656,153.28125 L1330.5625,153.28125 C1336.12891,141.367188 1348.23828,134.042969 1362.98438,134.042969 Z M1353.41406,218.320313 C1367.47656,218.320313 1376.65625,206.308594 1376.65625,187.65625 C1376.65625,169.101562 1367.47656,156.992188 1353.41406,156.992188 C1339.54688,156.992188 1330.26953,169.296875 1330.26953,187.65625 C1330.26953,206.210938 1339.44922,218.320313 1353.41406,218.320313 Z M1428.12109,111.191406 L1428.12109,135.3125 L1413.375,135.3125 L1413.375,156.796875 L1428.12109,156.796875 L1428.12109,211.679688 C1428.12109,232.089844 1437.69141,240.390625 1462.30078,240.390625 C1468.0625,240.390625 1472.94531,239.804688 1475.875,239.21875 L1475.875,218.222656 C1474.11719,218.515625 1471.48047,218.710938 1468.94141,218.710938 C1460.54297,218.710938 1456.63672,214.804688 1456.63672,206.796875 L1456.63672,156.796875 L1475.97266,156.796875 L1475.97266,135.3125 L1456.63672,135.3125 L1456.63672,111.191406 L1428.12109,111.191406 Z" id="hackdisrupt" fill="#000000"></path>
                <g id="logo-symbol">
                    <path d="M137.925,5.43037552 C151.218,-1.80562448 172.755,-1.81462448 186.075,5.43037552 L299.925,67.3503755 C313.218,74.5863755 324,92.7033755 324,107.796376 L324,229.350376 C324,244.452376 313.245,262.542376 299.925,269.787376 L186.075,331.707376 C172.782,338.943376 151.245,338.961376 137.925,331.707376 L24.075,269.787376 C10.782,262.551376 0,244.434376 0,229.350376 L0,107.796376 C0,92.6943755 10.755,74.6043755 24.075,67.3503755 L137.925,5.43037552 Z" id="Shape" fill="#000000" fill-rule="nonzero"></path>
                    <path d="M80.15625,218 L105.117188,218 L105.117188,174.898438 C105.117188,166.390625 109.828125,160.414062 118.195312,160.414062 C126.421875,160.414062 130.710938,165.6875 130.710938,174.40625 L130.710938,218 L155.601562,218 L155.601562,168.992188 C155.601562,150.921875 146.109375,140.09375 129.023438,140.09375 C117.351562,140.09375 109.054688,145.648438 105.046875,155.914062 L104.554688,155.914062 L104.554688,116.539062 L80.15625,116.539062 L80.15625,218 Z M195.46875,219.054688 C176.484375,219.054688 164.953125,204.148438 164.953125,179.539062 C164.953125,155.210938 176.695312,140.445312 195.75,140.445312 C206.859375,140.445312 215.296875,146.351562 218.671875,154.929688 L219.164062,154.929688 L219.164062,116.539062 L244.054688,116.539062 L244.054688,218 L219.304688,218 L219.304688,204.851562 L218.8125,204.851562 C215.71875,213.007812 206.859375,219.054688 195.46875,219.054688 Z M204.820312,159.921875 C195.960938,159.921875 190.476562,167.585938 190.476562,179.75 C190.476562,191.984375 195.890625,199.507812 204.820312,199.507812 C213.820312,199.507812 219.234375,192.054688 219.234375,179.75 C219.234375,167.585938 213.75,159.921875 204.820312,159.921875 Z" id="hd" fill="#FFFFFF"></path>
                </g>
            </g>
        </g>
    </g>
</svg>