<?xml version="1.0" encoding="UTF-8"?>
<svg width="1426px" height="338px" viewBox="0 0 1426 338" version="1.1" xmlns="http://www.w3.org/2000/svg" xmlns:xlink="http://www.w3.org/1999/xlink">
    <!-- Generator: Sketch 47 (45396) - http://www.bohemiancoding.com/sketch -->
    <title>logo-vertical</title>
    <desc>Created with Sketch.</desc>
    <defs></defs>
    <g id="Page-1" stroke="none" stroke-width="1" fill="none" fill-rule="evenodd">
        <g id="logo-vertical">
            <g id="Group-2">
                <text id="hackdisrupt" font-family="SFUIDisplay-Ultralight, SF UI Display" font-size="200" font-weight="200" fill="#000000">
                    <tspan x="429" y="240">hack</tspan>
                    <tspan x="809.175781" y="240" font-family="SFUIDisplay-Semibold, SF UI Display" font-weight="500">disrupt</tspan>
                </text>
                <g id="logo-symbol">
                    <path d="M137.925,5.43037552 C151.218,-1.80562448 172.755,-1.81462448 186.075,5.43037552 L299.925,67.3503755 C313.218,74.5863755 324,92.7033755 324,107.796376 L324,229.350376 C324,244.452376 313.245,262.542376 299.925,269.787376 L186.075,331.707376 C172.782,338.943376 151.245,338.961376 137.925,331.707376 L24.075,269.787376 C10.782,262.551376 0,244.434376 0,229.350376 L0,107.796376 C0,92.6943755 10.755,74.6043755 24.075,67.3503755 L137.925,5.43037552 Z" id="Shape" fill="#000000" fill-rule="nonzero"></path>
                    <path d="M80.15625,218 L105.117188,218 L105.117188,174.898438 C105.117188,166.390625 109.828125,160.414062 118.195312,160.414062 C126.421875,160.414062 130.710938,165.6875 130.710938,174.40625 L130.710938,218 L155.601562,218 L155.601562,168.992188 C155.601562,150.921875 146.109375,140.09375 129.023438,140.09375 C117.351562,140.09375 109.054688,145.648438 105.046875,155.914062 L104.554688,155.914062 L104.554688,116.539062 L80.15625,116.539062 L80.15625,218 Z M195.46875,219.054688 C176.484375,219.054688 164.953125,204.148438 164.953125,179.539062 C164.953125,155.210938 176.695312,140.445312 195.75,140.445312 C206.859375,140.445312 215.296875,146.351562 218.671875,154.929688 L219.164062,154.929688 L219.164062,116.539062 L244.054688,116.539062 L244.054688,218 L219.304688,218 L219.304688,204.851562 L218.8125,204.851562 C215.71875,213.007812 206.859375,219.054688 195.46875,219.054688 Z M204.820312,159.921875 C195.960938,159.921875 190.476562,167.585938 190.476562,179.75 C190.476562,191.984375 195.890625,199.507812 204.820312,199.507812 C213.820312,199.507812 219.234375,192.054688 219.234375,179.75 C219.234375,167.585938 213.75,159.921875 204.820312,159.921875 Z" id="hd" fill="#FFFFFF"></path>
                </g>
            </g>
        </g>
    </g>
</svg>